#!OML:ASF E:\Style6\Style6.ASF
:FULLY-SPECIFIED
:DEGREES
1776
root 2.59016 17.4155 0.825893 10.006 -8.1923 16.1603
lowerback 3.91097 -0.212627 14.312
upperback -1.87646 1.07184 16.0862
thorax -4.3828 0.356242 9.46423
lowerneck -12.8057 0.199494 4.62828
upperneck 23.8494 -0.2398 -2.65406
head 9.63958 0.0100309 -1.73459
rclavicle 2.38542e-014 9.85972e-014
rhumerus 25.2289 -53.0334 -5.47536
rradius 57.357
rwrist 35.1931
rhand 28.0531 3.46396
rfingers 7.12502
rthumb 51.9484 -16.6723
lclavicle 2.38542e-014 9.85972e-014
lhumerus -109.211 -52.5347 129.431
lradius 98.8302
lwrist 33.1521
lhand 3.77457 9.10894
lfingers 7.12502
lthumb 29.2005 36.8381
rfemur -30.4653 -5.83383 -8.11007
rtibia 42.4651
rfoot -16.8012 -1.86963
rtoes -19.9334
lfemur -17.5294 10.8434 -46.0438
ltibia 21.0201
lfoot -10.8381 -3.84641
ltoes -1.73193
1777
root 2.59179 17.4121 0.833806 9.85802 -8.1901 16.5049
lowerback 3.928 -0.239238 13.9586
upperback -1.91755 1.0292 15.9939
thorax -4.43541 0.343558 9.55276
lowerneck -12.8358 0.263089 4.56424
upperneck 23.8549 -0.103601 -2.78403
head 9.65209 0.0528559 -1.75315
rclavicle 4.13472e-014 -9.85972e-014
rhumerus 25.0971 -52.7625 -5.36533
rradius 57.4925
rwrist 35.1018
rhand 28.1427 2.7438
rfingers 7.12502
rthumb 52.0296 -17.3442
lclavicle 4.13472e-014 -9.85972e-014
lhumerus -109.175 -52.6733 129.479
lradius 98.73
lwrist 33.3648
lhand 3.70142 9.13564
lfingers 7.12502
lthumb 29.1306 36.8769
rfemur -30.2992 -5.96943 -8.51455
rtibia 42.4702
rfoot -16.7997 -1.77048
rtoes -20.3259
lfemur -17.3173 10.8958 -46.3831
ltibia 20.9437
lfoot -10.8634 -3.91995
ltoes -1.62153
1778
root 2.58934 17.4153 0.833174 9.98275 -8.11971 16.3202
lowerback 3.8842 -0.222941 14.127
upperback -2.02417 1.07432 16.0256
thorax -4.5311 0.358436 9.49995
lowerneck -12.8149 0.267295 4.49002
upperneck 23.8056 -0.0407826 -2.93451
head 9.63225 0.0581271 -1.7848
rclavicle -1.90833e-014 0
rhumerus 25.0217 -52.663 -5.29107
rradius 57.5027
rwrist 35.0998
rhand 28.0859 2.62227
rfingers 7.12502
rthumb 51.9781 -17.4964
lclavicle -1.90833e-014 0
lhumerus -109.163 -52.8546 129.594
lradius 98.6212
lwrist 33.5055
lhand 3.49191 9.15686
lfingers 7.12502
lthumb 28.9305 36.9325
rfemur -30.365 -5.84112 -8.29667
rtibia 42.4563
rfoot -16.7978 -2.02005
rtoes -20.813
lfemur -17.3855 10.7827 -46.1832
ltibia 20.8786
lfoot -10.787 -3.90538
ltoes -1.69735
1779
root 2.58621 17.4199 0.837222 10.1416 -8.0213 16.1826
lowerback 3.71334 -0.21598 14.2552
upperback -2.12493 1.0703 16.0456
thorax -4.54311 0.35167 9.45561
lowerneck -12.7549 0.322475 4.46136
upperneck 23.6952 0.0972773 -3.13537
head 9.58669 0.0965945 -1.83175
rclavicle 1.59028e-014 1.74931e-013
rhumerus 25.2776 -52.8471 -5.58516
rradius 57.3812
rwrist 35.3601
rhand 28.0159 3.40109
rfingers 7.12502
rthumb 51.9146 -16.7551
lclavicle 1.59028e-014 1.74931e-013
lhumerus -109.098 -53.0052 129.684
lradius 98.5685
lwrist 33.5698
lhand 3.25191 9.32875
lfingers 7.12502
lthumb 28.7012 37.1435
rfemur -30.406 -5.77547 -8.12667
rtibia 42.3961
rfoot -16.8234 -2.22459
rtoes -21.0077
lfemur -17.5168 10.5755 -46.0239
ltibia 20.9274
lfoot -10.7975 -3.82059
ltoes -1.74457
1780
root 2.58029 17.4256 0.835789 10.5721 -7.89695 15.7574
lowerback 3.37755 -0.169418 14.688
upperback -2.26327 1.09963 16.1122
thorax -4.50217 0.352358 9.29715
lowerneck -12.7667 0.390587 4.44633
upperneck 23.5601 0.22965 -3.26679
head 9.54659 0.140899 -1.85751
rclavicle 1.43125e-014 -9.54166e-014
rhumerus 25.539 -53.0291 -5.9175
rradius 57.314
rwrist 35.608
rhand 27.9326 3.79065
rfingers 7.12502
rthumb 51.839 -16.4102
lclavicle 1.43125e-014 -9.54166e-014
lhumerus -108.845 -53.1634 129.524
lradius 98.5031
lwrist 33.5019
lhand 3.23969 9.49683
lfingers 7.12502
lthumb 28.6896 37.3135
rfemur -30.7063 -5.64571 -7.60465
rtibia 42.322
rfoot -16.8717 -2.4723
rtoes -20.0844
lfemur -17.8901 10.2365 -45.598
ltibia 20.8795
lfoot -10.6722 -3.67383
ltoes -1.8367
1781
root 2.57936 17.4287 0.843261 10.55 -7.90465 15.762
lowerback 3.25947 -0.167261 14.7193
upperback -2.25199 1.06687 16.0341
thorax -4.41556 0.335544 9.18475
lowerneck -12.7766 0.422697 4.50451
upperneck 23.3557 0.292666 -3.3937
head 9.47911 0.159425 -1.90127
rclavicle 2.06736e-014 -2.00375e-013
rhumerus 25.5884 -53.0442 -6.02828
rradius 57.298
rwrist 35.6598
rhand 27.8454 3.62375
rfingers 7.12502
rthumb 51.7599 -16.6235
lclavicle 2.06736e-014 -2.00375e-013
lhumerus -108.455 -53.3191 129.142
lradius 98.4459
lwrist 33.468
lhand 3.32137 9.57843
lfingers 7.12502
lthumb 28.7676 37.3819
rfemur -30.6253 -5.59993 -7.61611
rtibia 42.2705
rfoot -16.9006 -2.43868
rtoes -19.5062
lfemur -17.7118 10.0665 -45.5735
ltibia 20.6731
lfoot -10.598 -3.46836
ltoes -1.73923
1782
root 2.58102 17.4265 0.864423 10.0018 -8.0347 16.3649
lowerback 3.38487 -0.242377 14.0785
upperback -2.12848 0.93461 15.8451
thorax -4.34117 0.290353 9.31253
lowerneck -12.7096 0.454219 4.46586
upperneck 23.1456 0.370515 -3.48397
head 9.39588 0.181062 -1.91368
rclavicle -3.65764e-014 2.09917e-013
rhumerus 25.7318 -52.9851 -6.15537
rradius 57.3214
rwrist 35.6773
rhand 27.9526 3.48094
rfingers 7.12502
rthumb 51.8571 -16.7092
lclavicle -3.65764e-014 2.09917e-013
lhumerus -108.075 -53.306 128.802
lradius 98.3617
lwrist 33.4852
lhand 3.21969 9.55002
lfingers 7.12502
lthumb 28.6705 37.37
rfemur -30.0642 -5.68739 -8.35654
rtibia 42.2239
rfoot -16.9091 -2.09012
rtoes -19.7083
lfemur -16.9545 10.1373 -46.1158
ltibia 20.4215
lfoot -10.663 -3.27548
ltoes -1.97859
